<?xml version="1.0" standalone="no"?><!DOCTYPE svg PUBLIC "-//W3C//DTD SVG 1.1//EN" "http://www.w3.org/Graphics/SVG/1.1/DTD/svg11.dtd"><svg t="1679659207542" class="icon" viewBox="0 0 1024 1024" version="1.1" xmlns="http://www.w3.org/2000/svg" p-id="17471" xmlns:xlink="http://www.w3.org/1999/xlink" width="200" height="200"><path d="M738.6 292H285.4C163 292 64 383 64 510.8c0 128 99 221.2 221.4 221.2h453c122.4 0 221.4-93.2 221.4-221.2 0.2-127.8-98.8-218.8-221.2-218.8zM400 533.4c0 5.4-4.8 10.6-10.4 10.6H320v70.2c0 5.6-6.2 9.8-11.6 9.8h-42.8c-5.2 0-9.6-3.8-9.6-9V544H185.8c-5.6 0-9.8-6.2-9.8-11.6v-42.8c0-5.2 3.8-9.6 9-9.6H256v-69.6c0-5.6 3.8-10.4 9.2-10.4h44.2c5.4 0 10.6 4.8 10.6 10.4V480h69.6c5.6 0 10.4 3.8 10.4 9.2v44.2z m239.6 17.6c-21.4 0-39-17.2-39-38.4s17.4-38.4 39-38.4 39 17.2 39 38.4-17.6 38.4-39 38.4z m85 83.6c-21.4 0-39-17-39-38.2 0-21.2 17.4-38.4 39-38.4s39 17 39 38.4c0 21.2-17.4 38.2-39 38.2z m0-167.4c-21.4 0-39-17.2-39-38.2 0-21.2 17.4-38.4 39-38.4s39 17.2 39 38.4c0 21-17.4 38.2-39 38.2z m85.2 83.8c-21.4 0-38.8-17.2-38.8-38.4s17.4-38.4 38.8-38.4 39 17.2 39 38.4c-0.2 21.2-17.6 38.4-39 38.4z" p-id="17472" fill="#dd6572"></path></svg>